<?xml version="1.0" encoding="UTF-8" standalone="no"?>
<!DOCTYPE svg PUBLIC "-//W3C//DTD SVG 1.1//EN" "http://www.w3.org/Graphics/SVG/1.1/DTD/svg11.dtd">
<svg width="100%" height="100%" viewBox="0 0 15 31" version="1.1" xmlns="http://www.w3.org/2000/svg" xmlns:xlink="http://www.w3.org/1999/xlink" xml:space="preserve" xmlns:serif="http://www.serif.com/" style="fill-rule:evenodd;clip-rule:evenodd;stroke-linejoin:round;stroke-miterlimit:2;">
    <g transform="matrix(1,0,0,1,-282.259,-138.051)">
        <g transform="matrix(0.996255,0,0,0.96875,-40.5556,85.483)">
            <path d="M335.194,59.226C333.933,59.232 333.52,59.985 333.52,61.253L333.52,66.265L338.052,66.265L338.052,71.227L333.52,71.227L333.52,86.264L328.558,86.264L328.558,71.227L324.029,71.227L324.029,66.265L328.558,66.265L328.558,61.253L328.558,61.198C328.573,56.587 330.579,54.264 335.209,54.264L339.085,54.264L339.085,59.226L335.209,59.226L335.194,59.226Z"/>
        </g>
    </g>
</svg>
