<?xml version="1.0" encoding="UTF-8" standalone="no"?>
<!DOCTYPE svg PUBLIC "-//W3C//DTD SVG 1.1//EN" "http://www.w3.org/Graphics/SVG/1.1/DTD/svg11.dtd">
<svg width="100%" height="100%" viewBox="0 0 32 26" version="1.1" xmlns="http://www.w3.org/2000/svg" xmlns:xlink="http://www.w3.org/1999/xlink" xml:space="preserve" xmlns:serif="http://www.serif.com/" style="fill-rule:evenodd;clip-rule:evenodd;stroke-linejoin:round;stroke-miterlimit:2;">
    <g transform="matrix(1,0,0,1,-242.291,-140.551)">
        <g transform="matrix(1.02118,0,0,1.04785,-105.428,54.3487)">
            <path d="M356.178,90.018C350.132,90.298 345.587,87.725 342.442,83.494C341.02,86.614 341.668,89.415 344.435,91.891C343.289,92.067 342.219,91.936 341.234,91.468C341.121,94.5 343.278,96.451 346.55,97.872L343.702,97.993C344.545,100.676 346.794,101.954 350.054,102.221C348.137,104.819 344.771,105.658 340.509,105.423C357.82,111.247 368.358,100.745 368.358,88.87L371.845,85.246L368.781,85.789L370.895,82.89L366.714,84.313C362.457,80.055 354.442,82.669 356.178,90.018Z"/>
        </g>
    </g>
</svg>
